# xmcd CD database file
#
# Track frame offsets:
#	182
#	12425
#	28687
#	48482
#	64985
#	84675
#	95100
#	108380
#	118020
#	137965
#	151477
#	162737
#	188982
#	202785
#	219725
#	238292
#	264365
#
# Disc length: 3898 seconds
#
# Revision: 0
# Processed by: cddbd v1.5.1PL2 Copyright (c) Steve Scherf et al.
# Submitted via: CDex 1.51
#
DISCID=020f3811
DTITLE=Various Artist - Britisch Blues Sampler #1
DYEAR=1900
DGENRE=Blues
TTITLE0=Spencer Davis Group - When I come home
TTITLE1=Spencer Davis Group - I'm a man
TTITLE2=Spencer Davis Group - Gimme some lovin'
TTITLE3=Cream - Cat's squirrel
TTITLE4=Cream - I'm so glad
TTITLE5=Cream - Take it back
TTITLE6=Jeff Beck Group ( feat.: Rod Stewart)- Hi ho silver lining
TTITLE7=Jeff Beck Group ( feat.: Rod Stewart)- I know I'm losing you
TTITLE8=Jeff Beck Group ( feat.: Rod Stewart)- Hi ho Rock my Plimsoul
TTITLE9=Jeff Beck Group ( feat.: Rod Stewart)- Tallyman
TTITLE10=Jeff Beck Group ( feat.: Rod Stewart)- Shapes of things
TTITLE11=Taste - What's goin' on
TTITLE12=Taste - At the bottom
TTITLE13=Taste - Make that woman feel satisfied
TTITLE14=Taste - Morning sun
TTITLE15=Taste - Sugar mama
TTITLE16=Taste - Gamblin' blues
EXTD=
EXTT0=
EXTT1=
EXTT2=
EXTT3=
EXTT4=
EXTT5=
EXTT6=
EXTT7=
EXTT8=
EXTT9=
EXTT10=
EXTT11=
EXTT12=
EXTT13=
EXTT14=
EXTT15=
EXTT16=
PLAYORDER=
